<svg width="1339" height="549" viewBox="0 0 1339 549" fill="none" xmlns="http://www.w3.org/2000/svg">
<path d="M-7.57138 0.456485C36.4844 40.3749 155.672 136.933 287.987 81.7656C483 0.456814 656.789 -25.6945 795 81.7656C933.563 189.5 1091.69 119.513 1180.5 123C1295.91 131.381 1367 268.944 1327.25 371.943C1239.21 600.068 1040.46 570.267 933.563 485.561C790.184 371.943 752.276 505.884 520.634 494.359C351.283 485.932 304 371.943 177.888 379.03C77.9111 384.648 -0.149144 418.513 -30.105 442.53L-31.3469 466.894C-48.5177 466.04 -46.6365 455.785 -30.105 442.53L-7.57138 0.456485Z" fill="url(#paint0_linear)"/>
<defs>
<linearGradient id="paint0_linear" x1="-18.9508" y1="-19.6946" x2="229.65" y2="744.847" gradientUnits="userSpaceOnUse">
<stop stop-color="#F9005F"/>
<stop offset="1" stop-color="#E4B862"/>
</linearGradient>
</defs>
</svg>
