<svg width="1339" height="573" viewBox="0 0 1339 573" fill="none" xmlns="http://www.w3.org/2000/svg">
<path opacity="0.3" d="M-7.89508 0.168177C36.0912 41.9233 155.112 142.902 287.534 84.8514C482.706 -0.706668 663.779 -37.5275 794.577 83.9468C934.631 214.017 1123.91 114.117 1186.33 130.115C1301.73 138.693 1366.27 279.085 1326.33 387.097C1237.88 626.325 1039.17 595.449 932.42 506.87C789.237 388.055 751.085 528.491 519.45 516.826C350.104 508.298 287.101 368.856 160.968 376.509C66.9802 382.211 -1.4626 409.948 -30.096 431.476C-30.9645 448.186 -31.4668 457.833 -31.4668 457.833C-50.5055 456.874 -48.7367 445.491 -30.096 431.476C-26.0604 353.836 -14.1167 123.71 -7.89508 0.168177Z" fill="url(#paint0_linear)"/>
<defs>
<linearGradient id="paint0_linear" x1="-21.015" y1="-25.0291" x2="253.663" y2="772.273" gradientUnits="userSpaceOnUse">
<stop stop-color="#F9005F"/>
<stop offset="1" stop-color="#E4B862"/>
</linearGradient>
</defs>
</svg>
