<svg width="1339" height="561" viewBox="0 0 1339 561" fill="none" xmlns="http://www.w3.org/2000/svg">
<path opacity="0.5" d="M-7.83612 0.997148C36.1989 41.7854 155.337 140.441 287.679 83.9734C482.733 0.747845 663.75 -34.9497 794.69 83.7153C934.895 210.777 1124.04 113.553 1186.47 129.237C1301.88 137.747 1366.59 274.786 1326.79 380.108C1238.63 613.377 1039.89 583.011 933.044 496.467C789.725 380.381 751.748 517.336 520.112 505.671C350.767 497.142 287.595 361.033 161.48 368.343C67.505 373.79 -0.899411 400.765 -29.5045 421.731C-30.3524 438.031 -30.8428 447.441 -30.8428 447.441C-49.8814 446.483 -48.1268 435.38 -29.5045 421.731C-25.5648 345.994 -13.9052 121.51 -7.83612 0.997148Z" fill="url(#paint0_linear)"/>
<defs>
<linearGradient id="paint0_linear" x1="-20.9863" y1="-23.6001" x2="241.214" y2="759.048" gradientUnits="userSpaceOnUse">
<stop stop-color="#F9005F"/>
<stop offset="1" stop-color="#E4B862"/>
</linearGradient>
</defs>
</svg>
