<svg width="158" height="158" viewBox="0 0 158 158" fill="none" xmlns="http://www.w3.org/2000/svg">
<path d="M39.5 0C34.0687 0 29.625 4.44375 29.625 9.875V148.125C29.625 153.556 34.0687 158 39.5 158H138.25C143.681 158 148.125 153.556 148.125 148.125V39.5L108.625 0H39.5Z" fill="#E2E5E7"/>
<path d="M118.5 39.5H148.125L108.625 0V29.625C108.625 35.0563 113.069 39.5 118.5 39.5Z" fill="#B0B7BD"/>
<path d="M148.125 69.125L118.5 39.5H148.125V69.125Z" fill="#CAD1D8"/>
<path d="M128.375 128.375C128.375 131.091 126.153 133.312 123.438 133.312H14.8125C12.0969 133.312 9.875 131.091 9.875 128.375V79C9.875 76.2844 12.0969 74.0625 14.8125 74.0625H123.438C126.153 74.0625 128.375 76.2844 128.375 79V128.375Z" fill="#F15642"/>
<path d="M31.3976 93.5508C31.3976 92.2473 32.4246 90.8253 34.0786 90.8253H43.1982C48.3332 90.8253 52.9547 94.2618 52.9547 100.848C52.9547 107.089 48.3332 110.565 43.1982 110.565H36.6066V115.779C36.6066 117.517 35.5006 118.5 34.0786 118.5C32.7751 118.5 31.3976 117.517 31.3976 115.779V93.5508ZM36.6066 95.7974V105.633H43.1982C45.8447 105.633 47.9382 103.297 47.9382 100.848C47.9382 98.0884 45.8447 95.7974 43.1982 95.7974H36.6066Z" fill="white"/>
<path d="M60.6868 118.5C59.3833 118.5 57.9613 117.789 57.9613 116.056V93.6298C57.9613 92.2127 59.3833 91.1808 60.6868 91.1808H69.7274C87.769 91.1808 87.374 118.5 70.0829 118.5H60.6868ZM63.1753 95.9998V113.686H69.7274C80.3874 113.686 80.8614 95.9998 69.7274 95.9998H63.1753Z" fill="white"/>
<path d="M93.773 96.3158V102.591H103.841C105.263 102.591 106.685 104.013 106.685 105.391C106.685 106.694 105.263 107.761 103.841 107.761H93.773V116.051C93.773 117.434 92.7904 118.495 91.4079 118.495C89.6699 118.495 88.6084 117.434 88.6084 116.051V93.6249C88.6084 92.2078 89.6749 91.1759 91.4079 91.1759H105.267C107.005 91.1759 108.032 92.2078 108.032 93.6249C108.032 94.8889 107.005 96.3109 105.267 96.3109H93.773V96.3158Z" fill="white"/>
<path d="M123.438 133.312H29.625V138.25H123.438C126.153 138.25 128.375 136.028 128.375 133.312V128.375C128.375 131.091 126.153 133.312 123.438 133.312Z" fill="#CAD1D8"/>
</svg>
