<svg width="160" height="65" viewBox="0 0 160 65" fill="none" xmlns="http://www.w3.org/2000/svg">
<g clip-path="url(#clip0)">
<path d="M81.6473 29.4806V0H95.5795C101.074 0 104.53 3.84384 104.53 9.41903C104.53 14.9942 101.066 18.8369 95.5795 18.8369H88.0646V29.4806H81.6473ZM88.0646 13.2629H94.8187C96.7189 13.2629 97.9013 12.2496 97.9013 10.3486V8.48943C97.9013 6.58842 96.7189 5.57518 94.8187 5.57518H88.0646V13.2629Z" fill="white"/>
<path d="M109.343 29.4806V0H123.275C128.763 0 132.225 3.84384 132.225 9.41903C132.225 14.9942 128.761 18.8369 123.275 18.8369H115.761V29.4806H109.343ZM115.761 13.2629H122.515C124.415 13.2629 125.597 12.2496 125.597 10.3486V8.48943C125.597 6.58842 124.415 5.57518 122.515 5.57518H115.761V13.2629Z" fill="white"/>
<path d="M137.039 0H156.966V5.70184H143.455V11.2316H150.967C156.461 11.2316 159.917 15.0755 159.917 20.3973C159.917 25.6344 156.453 29.4782 150.967 29.4782H137.039V0ZM150.211 23.9054C152.111 23.9054 153.292 22.8922 153.292 20.9912V19.7234C153.292 17.8236 152.111 16.8092 150.211 16.8092H143.455V23.9054H150.211Z" fill="white"/>
<path d="M81.467 53.3432C81.467 42.4903 84.2068 38.251 91.0732 37.7026L96.9912 37.2246V40.1843L90.7077 40.6957C86.3985 41.0613 85.0465 42.9659 84.5353 49.5376H84.6798C85.7762 46.9794 87.4567 45.7009 90.3781 45.7009C95.1639 45.7009 98.4877 49.246 98.4877 55.3852C98.4877 61.0858 95.0169 64.9954 89.9768 64.9954C84.7538 65.0002 81.467 61.6749 81.467 53.3432ZM95.3478 56.6684V54.366C95.3478 50.3094 93.192 48.3009 89.8311 48.3009C86.3244 48.3009 84.6081 50.2007 84.6081 52.9775V56.3399C84.6081 60.4024 86.764 62.4061 90.1237 62.4061C93.1191 62.4061 95.3478 60.4322 95.3478 56.6684Z" fill="white"/>
<path d="M117.007 64.5615C114.858 64.5615 113.976 63.2471 113.756 61.4919H113.574C112.771 63.7944 110.762 65 108.131 65C104.15 65 101.813 62.8074 101.813 59.2993C101.813 55.7542 104.369 53.7815 109.848 53.7815H113.574V51.9175C113.574 49.2506 112.113 47.7881 109.118 47.7881C106.848 47.7881 105.355 48.885 104.333 50.602L102.58 48.9579C103.602 46.9481 105.867 45.267 109.268 45.267C113.797 45.267 116.5 47.6423 116.5 51.626V62.0033H118.65V64.5615H117.007ZM113.574 59.0795V55.9729H109.703C106.378 55.9729 104.881 56.9956 104.881 58.8238V59.5909C104.881 61.4536 106.342 62.5135 108.606 62.5135C111.492 62.5147 113.574 61.0163 113.574 59.0795Z" fill="white"/>
<path d="M122.816 45.7054H125.738V53.5628H135.162V45.7054H138.084V64.5614H135.162V56.1198H125.738V64.5614H122.816V45.7054Z" fill="white"/>
<path d="M144.294 45.7054H147.216V53.5986H150.979L154.631 47.8251C155.727 46.0711 156.494 45.7054 157.809 45.7054H159.525V48.2636H157.256L154.298 52.9415C153.531 54.1829 153.201 54.4757 152.252 54.7684V54.9142C153.274 55.0599 153.969 55.4256 154.773 56.8881L157.659 62.0032H159.808V64.5614H157.69C156.447 64.5614 155.42 64.013 154.439 62.2589L150.969 56.0839H147.207V64.5674H144.284L144.294 45.7054Z" fill="white"/>
<path d="M64.9729 32.463C64.9526 14.5306 50.4161 0 32.4865 0C14.5568 0 0 14.5509 0 32.5C0 50.4491 14.5449 65 32.4865 65H64.9729C64.9729 65 64.9729 32.4701 64.9729 32.463ZM32.4865 48.75C29.2739 48.75 26.1334 47.797 23.4622 46.0114C20.791 44.2258 18.7091 41.6879 17.4797 38.7186C16.2503 35.7493 15.9286 32.482 16.5553 29.3298C17.1821 26.1776 18.7291 23.2821 21.0008 21.0095C23.2724 18.7369 26.1667 17.1892 29.3176 16.5622C32.4685 15.9352 35.7344 16.257 38.7025 17.487C41.6706 18.7169 44.2074 20.7997 45.9922 23.472C47.7771 26.1443 48.7297 29.2861 48.7297 32.5C48.7297 36.8098 47.0184 40.943 43.9722 43.9905C40.926 47.038 36.7944 48.75 32.4865 48.75ZM54.4626 60.9853C53.1776 60.9853 51.9214 60.6041 50.8529 59.8898C49.7844 59.1756 48.9517 58.1605 48.4599 56.9727C47.9681 55.785 47.8395 54.4781 48.0902 53.2172C48.3409 51.9563 48.9597 50.7981 49.8683 49.8891C50.777 48.9801 51.9347 48.361 53.1951 48.1102C54.4554 47.8594 55.7618 47.9881 56.949 48.4801C58.1362 48.972 59.151 49.8052 59.8649 50.8741C60.5788 51.943 60.9599 53.1997 60.9599 54.4853C60.9596 56.2091 60.275 57.8622 59.0565 59.0811C57.8381 60.3001 56.1857 60.985 54.4626 60.9853Z" fill="white"/>
</g>
<defs>
<clipPath id="clip0">
<rect width="159.921" height="65" fill="white"/>
</clipPath>
</defs>
</svg>
