<svg width="50" height="42" viewBox="0 0 50 42" fill="none" xmlns="http://www.w3.org/2000/svg">
<path d="M49.2048 5.043C48.0939 5.53562 46.9407 5.92426 45.7574 6.20561C47.0613 4.96657 48.0416 3.41679 48.5947 1.68696C48.7526 1.19312 48.2162 0.766085 47.7703 1.0305C46.124 2.00696 44.3508 2.73949 42.4997 3.20797C42.3923 3.23515 42.2815 3.24893 42.1703 3.24893C41.8331 3.24893 41.5053 3.12373 41.2475 2.8965C39.278 1.16069 36.7449 0.204712 34.115 0.204712C32.9771 0.204712 31.8281 0.382084 30.7 0.731952C27.2047 1.81605 24.5078 4.69923 23.6617 8.25642C23.3442 9.59068 23.2583 10.9261 23.406 12.2257C23.423 12.375 23.3524 12.4792 23.3089 12.5281C23.2324 12.6138 23.1241 12.6629 23.0116 12.6629C22.999 12.6629 22.9861 12.6623 22.9733 12.6611C15.3223 11.9503 8.42292 8.26423 3.5461 2.2821C3.29742 1.97697 2.82052 2.01439 2.62231 2.35439C1.6673 3.99279 1.16261 5.86672 1.16261 7.77356C1.16261 10.6959 2.33668 13.4498 4.37603 15.4575C3.51843 15.2541 2.68838 14.9339 1.91733 14.5056C1.5443 14.2984 1.08533 14.5648 1.08008 14.9914C1.02669 19.3327 3.56841 23.1957 7.376 24.9351C7.29932 24.9369 7.22264 24.9378 7.14584 24.9378C6.54229 24.9378 5.93118 24.8795 5.3297 24.7646C4.90961 24.6844 4.5567 25.0829 4.68714 25.4902C5.92301 29.3486 9.24517 32.1926 13.2207 32.8384C9.92126 35.0532 6.07893 36.2216 2.07983 36.2216L0.833105 36.2209C0.448982 36.2209 0.124104 36.4712 0.0262146 36.8433C-0.0702124 37.2097 0.107403 37.5963 0.434963 37.7868C4.94131 40.4094 10.0814 41.7955 15.3019 41.7955C19.8715 41.7955 24.146 40.8886 28.0067 39.1003C31.546 37.4608 34.6736 35.1171 37.3026 32.1345C39.7517 29.356 41.6668 26.1486 42.9946 22.6014C44.2604 19.2201 44.9294 15.6122 44.9294 12.1676V12.0035C44.9293 11.4505 45.1794 10.93 45.6158 10.5758C47.2719 9.23118 48.714 7.64836 49.902 5.87135C50.2157 5.40214 49.721 4.81407 49.2048 5.043Z" fill="white"/>
</svg>
