<svg width="50" height="30" viewBox="0 0 50 30" fill="none" xmlns="http://www.w3.org/2000/svg">
<path fill-rule="evenodd" clip-rule="evenodd" d="M42.7247 18.8435C44.3715 20.4628 46.1095 21.9863 47.5864 23.7689C48.2389 24.561 48.8565 25.3785 49.3291 26.2978C49.9986 27.6046 49.3922 29.0427 48.2287 29.1208L40.9966 29.1175C39.1314 29.2734 37.6433 28.517 36.3922 27.2325C35.3909 26.2053 34.4636 25.112 33.5008 24.0501C33.1061 23.6161 32.6929 23.2077 32.1994 22.8849C31.2121 22.2394 30.3551 22.4371 29.7909 23.4742C29.2163 24.529 29.086 25.697 29.0296 26.8726C28.9521 28.5878 28.4373 29.0388 26.7267 29.1173C23.0708 29.291 19.6012 28.7339 16.3781 26.8764C13.5365 25.2388 11.3329 22.9271 9.41495 20.31C5.68064 15.2139 2.82091 9.61409 0.25069 3.85742C-0.327846 2.56043 0.0952506 1.86422 1.51607 1.83958C3.87539 1.79341 6.23439 1.7967 8.59649 1.83629C9.55539 1.85042 10.1902 2.40437 10.5604 3.31677C11.8369 6.478 13.3988 9.48562 15.3593 12.2734C15.8814 13.0156 16.4138 13.7579 17.1719 14.2803C18.0106 14.8587 18.6492 14.667 19.0437 13.726C19.2941 13.1293 19.4037 12.4867 19.4601 11.8476C19.6471 9.64908 19.6717 7.45431 19.3439 5.26348C19.1426 3.89619 18.3779 3.01105 17.0233 2.75231C16.3321 2.62039 16.435 2.36133 16.7697 1.96394C17.351 1.27856 17.8978 0.851929 18.9876 0.851929H27.161C28.4478 1.10771 28.7335 1.68992 28.9097 2.99396L28.9167 12.1382C28.9027 12.6431 29.1671 14.1411 30.0699 14.4753C30.7924 14.7131 31.2687 14.1309 31.7022 13.6695C33.6592 11.5775 35.0558 9.10531 36.3036 6.54535C36.8573 5.41971 37.3334 4.2507 37.7949 3.08268C38.1367 2.21594 38.6732 1.78947 39.6425 1.80836L47.509 1.81543C47.7422 1.81543 47.9782 1.81888 48.2041 1.85781C49.5297 2.08534 49.8929 2.65966 49.4835 3.96338C48.8384 6.00882 47.5833 7.71338 46.3561 9.42582C45.0443 11.2541 43.6412 13.0198 42.3403 14.8589C41.1451 16.5383 41.24 17.3848 42.7247 18.8435Z" fill="white"/>
</svg>
